<?xml version="1.0" encoding="UTF-8" standalone="no"?><!DOCTYPE svg PUBLIC "-//W3C//DTD SVG 1.1//EN" "http://www.w3.org/Graphics/SVG/1.1/DTD/svg11.dtd"><svg width="100%" height="100%" viewBox="0 0 2250 2250" version="1.1" xmlns="http://www.w3.org/2000/svg" xmlns:xlink="http://www.w3.org/1999/xlink" xml:space="preserve" xmlns:serif="http://www.serif.com/" style="fill-rule:evenodd;clip-rule:evenodd;stroke-linecap:round;stroke-linejoin:round;stroke-miterlimit:1.5;"><path d="M146.785,861.393c10.122,8.479 11.109,16.132 -7.528,40.947c-30.675,40.843 -59.505,67.584 -72.149,55.173c-8.281,-8.128 0.636,-48.982 22.726,-77.535c20.318,-26.264 47.604,-26.414 56.951,-18.585Z" style="fill:#ff7900;"/><path d="M1332.349,2227.175c-12.951,-1.366 -13.481,-17.598 6.139,-26.114c168.645,-73.204 265.987,-133.686 378.447,-227.429c15.142,-12.622 27.385,-14.2 30.044,-9.712c11.379,19.207 -7.849,60.881 -51.333,102.838c-99.35,95.86 -272.014,170.045 -363.297,160.417Z" style="fill:#ff7900;"/><path d="M509.298,642.708c35.364,-19.468 61.384,-3.075 45.028,10.708c-120.222,101.309 -197.328,191.418 -228.033,228.449c-20.047,24.177 -41.197,20.771 -48.341,7.953c-4.87,-8.738 -13.528,-29.756 11.643,-58.431c90.601,-103.209 143.578,-146.772 219.703,-188.679Z" style="fill:#ff7900;"/><path d="M1797.695,133.112c87.732,46.232 166.349,114.196 228.934,203.779c230.124,329.394 203.611,805.88 -57.115,1211.65c-507.757,790.23 -1349.013,652.796 -1314.867,86.169c8.477,-140.668 130.89,-318.034 164.411,-428.858c80.916,-267.515 -33.102,-585.531 100.014,-834.62c-219.78,50.749 -461.977,236.869 -718.152,456.262c-44.223,37.873 -111.717,-203.019 535.941,-614.83c549.001,-349.08 976.273,-118.674 1052.634,-84.904c3.677,1.626 6.393,3.415 8.2,5.352Z" style="fill:#ff7900;"/><path d="M654.6,1635.98c0,0 -0.421,58.833 38.875,112.484c164.393,224.446 587.138,169.572 853.834,-19.078c429.434,-303.763 471.247,-816.728 462.977,-986.809c-23.116,-475.43 -214.852,-611.047 -214.852,-611.047c0,-0 114.273,44.47 231.194,205.36c236.219,325.051 203.611,805.88 -57.115,1211.65c-507.757,790.23 -1349.061,654.065 -1314.914,87.439Z" style="fill:#dd3c00;"/><path d="M738.998,691.951c45.271,-142.17 518.181,-507.974 670.077,-477.492c230.966,46.349 552.311,691.744 515.926,828.405c-31.869,119.697 -350.398,454.874 -450.231,436.135c-74.498,-13.984 -150.701,-200.938 -103.371,-296.266c36.177,-72.864 213.647,-209.615 229.843,-217.989c6.518,-3.37 -213.79,-460.151 -228.822,-457.858c-13.593,2.074 -290.029,259.221 -293.37,280.73c-0.561,3.611 123.083,201.865 115.951,256.682c-15.122,116.237 -152.04,338.66 -253.57,235.143c-70.947,-72.335 -226.154,-512.996 -202.432,-587.491Z" style="fill:#fce49c;stroke:#ff7900;stroke-width:58.33px;"/></svg>